HIERARCHY
ROOT hip
{
  OFFSET 0 0 0
  CHANNELS 6 Xposition Yposition Zposition Zrotation Yrotation Xrotation
  JOINT abdomen
  {
    OFFSET 0 20.6881 -0.73152
    CHANNELS 3 Zrotation Xrotation Yrotation
    JOINT chest
    {
      OFFSET 0 11.7043 -0.48768
      CHANNELS 3 Zrotation Xrotation Yrotation
      JOINT neck
      {
        OFFSET 0 22.1894 -2.19456
        CHANNELS 3 Zrotation Xrotation Yrotation
        JOINT head
        {
          OFFSET -0.24384 7.07133 1.2192
          CHANNELS 3 Zrotation Xrotation Yrotation
          JOINT leftEye
          {
            OFFSET 4.14528 8.04674 8.04672
            CHANNELS 3 Zrotation Xrotation Yrotation
            End Site
            {
              OFFSET 1 0 0
            }
          }
          JOINT rightEye
          {
            OFFSET -3.6576 8.04674 8.04672
            CHANNELS 3 Zrotation Xrotation Yrotation
            End Site
            {
              OFFSET 1 0 0
            }
          }
        }
      }
      JOINT rCollar
      {
        OFFSET -2.68224 19.2634 -4.8768
        CHANNELS 3 Zrotation Xrotation Yrotation
        JOINT rShldr
        {
          OFFSET -8.77824 -1.95073 1.46304
          CHANNELS 3 Zrotation Xrotation Yrotation
          JOINT rForeArm
          {
            OFFSET -28.1742 -1.7115 0.48768
            CHANNELS 3 Zrotation Xrotation Yrotation
            JOINT rHand
            {
              OFFSET -22.5879 0.773209 7.07136
              CHANNELS 3 Zrotation Xrotation Yrotation
              JOINT rThumb1
              {
                OFFSET -1.2192 -0.487915 3.41376
                CHANNELS 3 Zrotation Xrotation Yrotation
                JOINT rThumb2
                {
                  OFFSET -3.37035 -0.52449 3.41376
                  CHANNELS 3 Zrotation Xrotation Yrotation
                  End Site
                  {
                    OFFSET -1.78271 -1.18214 1.43049
                  }
                }
              }
              JOINT rIndex1
              {
                OFFSET -7.75947 0.938293 5.60832
                CHANNELS 3 Zrotation Xrotation Yrotation
                JOINT rIndex2
                {
                  OFFSET -2.54057 -0.884171 1.56538
                  CHANNELS 3 Zrotation Xrotation Yrotation
                  End Site
                  {
                    OFFSET -1.62519 -0.234802 1.16502
                  }
                }
              }
              JOINT rMid1
              {
                OFFSET -8.24714 1.18213 3.41376
                CHANNELS 3 Zrotation Xrotation Yrotation
                JOINT rMid2
                {
                  OFFSET -3.10165 -0.590103 1.0647
                  CHANNELS 3 Zrotation Xrotation Yrotation
                  End Site
                  {
                    OFFSET -2.48547 -0.328903 0.83742
                  }
                }
              }
              JOINT rRing1
              {
                OFFSET -8.82822 0.546677 1.51678
                CHANNELS 3 Zrotation Xrotation Yrotation
                JOINT rRing2
                {
                  OFFSET -2.60934 -0.819778 -0.0198488
                  CHANNELS 3 Zrotation Xrotation Yrotation
                  End Site
                  {
                    OFFSET -2.33842 -0.294052 0.168128
                  }
                }
              }
              JOINT rPinky1
              {
                OFFSET -8.27202 -0.0477905 -0.4584
                CHANNELS 3 Zrotation Xrotation Yrotation
                JOINT rPinky2
                {
                  OFFSET -1.82734 -0.647385 -0.700984
                  CHANNELS 3 Zrotation Xrotation Yrotation
                  End Site
                  {
                    OFFSET -1.69225 -0.51767 -0.607171
                  }
                }
              }
            }
          }
        }
      }
      JOINT lCollar
      {
        OFFSET 2.68224 19.2634 -4.8768
        CHANNELS 3 Zrotation Xrotation Yrotation
        JOINT lShldr
        {
          OFFSET 8.77824 -1.95073 1.46304
          CHANNELS 3 Zrotation Xrotation Yrotation
          JOINT lForeArm
          {
            OFFSET 28.1742 -1.7115 0.48768
            CHANNELS 3 Zrotation Xrotation Yrotation
            JOINT lHand
            {
              OFFSET 22.5879 0.773209 7.07136
              CHANNELS 3 Zrotation Xrotation Yrotation
              JOINT lThumb1
              {
                OFFSET 1.2192 -0.487915 3.41376
                CHANNELS 3 Zrotation Xrotation Yrotation
                JOINT lThumb2
                {
                  OFFSET 3.37035 -0.52449 3.41376
                  CHANNELS 3 Zrotation Xrotation Yrotation
                  End Site
                  {
                    OFFSET 1.78271 -1.18214 1.43049
                  }
                }
              }
              JOINT lIndex1
              {
                OFFSET 7.75947 0.938293 5.60832
                CHANNELS 3 Zrotation Xrotation Yrotation
                JOINT lIndex2
                {
                  OFFSET 2.54057 -0.884171 1.56538
                  CHANNELS 3 Zrotation Xrotation Yrotation
                  End Site
                  {
                    OFFSET 1.62519 -0.234802 1.16502
                  }
                }
              }
              JOINT lMid1
              {
                OFFSET 8.24714 1.18213 3.41376
                CHANNELS 3 Zrotation Xrotation Yrotation
                JOINT lMid2
                {
                  OFFSET 3.10165 -0.590103 1.0647
                  CHANNELS 3 Zrotation Xrotation Yrotation
                  End Site
                  {
                    OFFSET 2.48547 -0.328903 0.83742
                  }
                }
              }
              JOINT lRing1
              {
                OFFSET 8.82822 0.546677 1.51678
                CHANNELS 3 Zrotation Xrotation Yrotation
                JOINT lRing2
                {
                  OFFSET 2.60934 -0.819778 -0.0198488
                  CHANNELS 3 Zrotation Xrotation Yrotation
                  End Site
                  {
                    OFFSET 2.33842 -0.294052 0.168128
                  }
                }
              }
              JOINT lPinky1
              {
                OFFSET 8.27202 -0.0477905 -0.4584
                CHANNELS 3 Zrotation Xrotation Yrotation
                JOINT lPinky2
                {
                  OFFSET 1.82734 -0.647385 -0.700984
                  CHANNELS 3 Zrotation Xrotation Yrotation
                  End Site
                  {
                    OFFSET 1.69225 -0.51767 -0.607171
                  }
                }
              }
            }
          }
        }
      }
    }
  }
  JOINT rButtock
  {
    OFFSET -8.77824 4.35084 1.2192
    CHANNELS 3 Zrotation Xrotation Yrotation
    JOINT rThigh
    {
      OFFSET 0 -1.70687 -2.19456
      CHANNELS 3 Zrotation Xrotation Yrotation
      JOINT rShin
      {
        OFFSET 0 -36.8199 0.73152
        CHANNELS 3 Zrotation Xrotation Yrotation
        JOINT rFoot
        {
          OFFSET 0.73152 -45.1104 -5.12064
          CHANNELS 3 Zrotation Xrotation Yrotation
          End Site
          {
            OFFSET -1.1221 -3.69964 12.103
          }
        }
      }
    }
  }
  JOINT lButtock
  {
    OFFSET 8.77824 4.35084 1.2192
    CHANNELS 3 Zrotation Xrotation Yrotation
    JOINT lThigh
    {
      OFFSET 0 -1.70687 -2.19456
      CHANNELS 3 Zrotation Xrotation Yrotation
      JOINT lShin
      {
        OFFSET 0 -36.8199 0.73152
        CHANNELS 3 Zrotation Xrotation Yrotation
        JOINT lFoot
        {
          OFFSET -0.73152 -45.1104 -5.12064
          CHANNELS 3 Zrotation Xrotation Yrotation
          End Site
          {
            OFFSET 1.1221 -3.69964 12.103
          }
        }
      }
    }
  }
}
MOTION
Frames:	4
Frame Time:	0.00833333
69.9516 82.6755 -159.364 0.0 0.0 0.0 0.0256067 -6.1929e-06 0.000728848 0.00706487 8.62975e-06 0.00122383 6.19091e-16 0.0 1.55301e-18 1.85429e-15 3.18055e-15 4.65902e-18 -0.0 0.0 0.0 -0.0 0.0 0.0 3.46557e-16 -1.94126e-19 1.49089e-16 8.32799e-15 -3.16813e-16 9.93923e-16 1.12313e-13 -3.65764e-14 6.36111e-15 1.28143e-12 2.08972e-14 -9.54166e-15 3.02027e-12 -2.94676e-14 9.54166e-15 5.20697e-12 -5.08889e-14 1.35174e-14 3.02431e-12 -2.8625e-14 6.36111e-15 7.73091 5.47488 0.417314 3.01904e-12 -2.9122e-14 6.36111e-15 2.90554 0.965183 0.102902 3.02603e-12 -2.93207e-14 7.15625e-15 10.2786 0.731801 0.0259123 3.01358e-12 -3.02153e-14 1.59028e-14 2.22167 -0.733487 -0.20892 2.49817e-16 -3.88251e-19 -1.49089e-16 4.39462e-15 -5.09386e-16 -9.93923e-16 1.12612e-13 3.02153e-14 -1.27222e-14 1.27929e-12 -4.42296e-14 1.90833e-14 3.02106e-12 -2.35038e-14 9.54166e-15 5.22923e-12 -4.13472e-14 1.43125e-14 3.01596e-12 -2.26615e-14 1.59028e-14 -7.73091 5.47488 -0.417314 3.02153e-12 -2.33572e-14 3.18055e-15 -2.90554 0.965183 -0.102902 3.01406e-12 -2.31584e-14 8.74653e-15 -10.2786 0.731801 -0.0259123 3.0257e-12 -2.18663e-14 0.0 -2.22167 -0.733487 0.20892 -2.03217e-16 0.0 -3.88251e-19 0.512296 -3.13364 -0.0420884 -0.00562799 0.123101 -0.0495522 -0.492796 3.00963 0.117359 2.03217e-16 0.0 3.88251e-19 -0.473328 -3.03453 0.0397105 0.005922 -0.0564356 0.0521752 0.492509 3.09005 -0.118956
69.7337 78.8287 -159.905 2.0369 -4.5547 2.343 2.01826 3.62062 -0.487073 1.20545 -1.4997 0.0285989 -2.1422 0.408445 -0.691655 1.23793 -5.42949 -0.61678 -0.0 0.0 0.0 -0.0 0.0 0.0 -1.98558e-15 -3.86748e-17 -1.74204e-14 20.9809 10.2996 -2.28974 -25.4751 -23.2515 14.2965 -0.000799289 0.154078 0.0216313 1.11427e-10 -5.38982e-09 -2.2649e-10 1.92691e-10 -9.3293e-09 -3.92129e-10 1.11431e-10 -5.38982e-09 -2.26497e-10 7.73091 5.47488 0.417314 1.11424e-10 -5.38982e-09 -2.26494e-10 2.90554 0.965183 0.102902 1.11433e-10 -5.38982e-09 -2.26494e-10 10.2786 0.731801 0.0259123 1.11421e-10 -5.38981e-09 -2.26485e-10 2.22167 -0.733487 -0.20892 -2.00735e-15 -3.58312e-17 -1.76825e-14 -24.2279 10.7065 4.17445 19.0106 -16.6756 -15.1563 -0.0908873 -6.70001 0.918587 1.24978e-10 5.13516e-10 1.89666e-10 2.11959e-10 8.76921e-10 3.30389e-10 1.24972e-10 5.13514e-10 1.89674e-10 -7.73091 5.47488 -0.417314 1.24978e-10 5.13517e-10 1.89665e-10 -2.90554 0.965183 -0.102902 1.24971e-10 5.13517e-10 1.89667e-10 -10.2786 0.731801 -0.0259123 1.24983e-10 5.13517e-10 1.89658e-10 -2.22167 -0.733487 0.20892 -2.03217e-16 0.0 -3.88251e-19 5.04988 -6.63153 -0.662818 0.0834134 13.3403 0.193527 -1.36485 -2.8973 -6.12082 2.03217e-16 0.0 3.88251e-19 3.61244 -14.63 1.94961 -0.0273743 23.8691 -0.266564 0.442605 3.95287 -0.268144
69.334 78.8556 -156.859 1.9853 -3.795 2.7508 4.17756 7.48141 -1.07873 2.51025 -3.09317 0.041099 -4.38745 0.825735 -1.40045 2.39059 -11.197 -1.24594 -0.0 0.0 0.0 -0.0 0.0 0.0 -4.5712e-15 1.48808e-15 -3.58278e-14 44.0977 21.1081 -4.97504 -36.4195 -42.3079 37.9225 -0.00235452 0.391432 0.0549522 2.26141e-10 -1.13116e-08 -4.5598e-10 3.91035e-10 -1.95804e-08 -7.89515e-10 2.26146e-10 -1.13116e-08 -4.55992e-10 7.73091 5.47488 0.417314 2.26138e-10 -1.13116e-08 -4.55984e-10 2.90554 0.965183 0.102902 2.26147e-10 -1.13116e-08 -4.55985e-10 10.2786 0.731801 0.0259123 2.26136e-10 -1.13116e-08 -4.55976e-10 2.22167 -0.733487 -0.20892 -4.51111e-15 1.4944e-15 -3.60546e-14 -51.6544 21.7787 9.01103 28.6741 -30.1286 -35.131 0.0527586 -13.7494 1.92853 2.45473e-10 1.01733e-09 3.72656e-10 4.1631e-10 1.73774e-09 6.49237e-10 2.45466e-10 1.01732e-09 3.72666e-10 -7.73091 5.47488 -0.417314 2.45473e-10 1.01733e-09 3.72661e-10 -2.90554 0.965183 -0.102902 2.45466e-10 1.01733e-09 3.72659e-10 -10.2786 0.731801 -0.0259123 2.45478e-10 1.01733e-09 3.7265e-10 -2.22167 -0.733487 0.20892 -2.03217e-16 0.0 -3.88251e-19 9.76701 -10.5002 -1.33751 0.0409555 27.4245 0.493973 -3.72925 -9.06057 -12.9248 2.03217e-16 0.0 3.88251e-19 8.85638 -26.7943 4.25136 0.364588 49.3113 -0.855599 0.391759 4.95567 -0.493604
68.8908 78.9492 -153.682 1.7178 -3.3526 2.9944 6.19137 10.8587 -1.48638 3.60654 -4.49911 0.0835772 -6.397 1.22462 -2.07539 3.35071 -16.2808 -1.91902 -0.0 0.0 0.0 -0.0 0.0 0.0 -6.64985e-15 -1.15636e-16 -5.25595e-14 65.7463 30.6849 -7.86529 -31.1588 -47.2591 69.0775 -0.0027469 0.462234 0.0648959 3.2824e-10 -1.61694e-08 -6.7949e-10 5.67658e-10 -2.79878e-08 -1.17642e-09 3.28244e-10 -1.61694e-08 -6.79505e-10 7.73091 5.47488 0.417314 3.28235e-10 -1.61694e-08 -6.79493e-10 2.90554 0.965183 0.102902 3.28246e-10 -1.61694e-08 -6.79495e-10 10.2786 0.731801 0.0259123 3.28235e-10 -1.61694e-08 -6.79487e-10 2.22167 -0.733487 -0.20892 -6.52167e-15 -1.06717e-16 -5.27494e-14 -77.9977 31.3777 14.4551 29.2578 -34.7027 -56.8777 0.407029 -20.0787 2.9142 3.68892e-10 1.5406e-09 5.68979e-10 6.25418e-10 2.63084e-09 9.91139e-10 3.68885e-10 1.54059e-09 5.6899e-10 -7.73091 5.47488 -0.417314 3.68892e-10 1.5406e-09 5.68988e-10 -2.90554 0.965183 -0.102902 3.68885e-10 1.5406e-09 5.68983e-10 -10.2786 0.731801 -0.0259123 3.68897e-10 1.5406e-09 5.68974e-10 -2.22167 -0.733487 0.20892 -2.03217e-16 0.0 -3.88251e-19 13.8917 -13.6211 -1.94585 -0.157049 39.7717 0.863948 -6.98681 -13.9761 -19.1616 2.03217e-16 0.0 3.88251e-19 14.6305 -37.6345 7.05257 2.11064 71.7023 -2.66255 0.356343 5.67833 -0.567737
